<svg width="62px" height="63px" viewBox="0 0 62 63" version="1.1" xmlns="http://www.w3.org/2000/svg" xmlns:xlink="http://www.w3.org/1999/xlink">
    <!-- Generator: Sketch 41.2 (35397) - http://www.bohemiancoding.com/sketch -->
    <desc>Created with Sketch.</desc>
    <defs>
        <polygon id="path-1" points="30.862766 61.6868687 0 61.6868687 0 0.273050505 30.862766 0.273050505 61.725532 0.273050505 61.725532 61.6868687"></polygon>
    </defs>
    <g id="Page-1" stroke="none" stroke-width="1" fill="none" fill-rule="evenodd">
        <g id="Group-3" transform="translate(0.000000, 0.040081)">
            <mask id="mask-2" fill="white">
                <use xlink:href="#path-1"></use>
            </mask>
            <g id="Clip-2"></g>
            <path d="M57.9488822,61.6868687 L3.77661827,61.6868687 C1.69946091,61.6868687 -3.1472081e-05,59.9959596 -3.1472081e-05,57.9292929 L-3.1472081e-05,4.03062626 C-3.1472081e-05,1.9639596 1.69946091,0.273050505 3.77661827,0.273050505 L57.9488822,0.273050505 C60.0260396,0.273050505 61.725532,1.9639596 61.725532,4.03062626 L61.725532,57.9292929 C61.725532,59.9959596 60.0260396,61.6868687 57.9488822,61.6868687" id="Fill-1" fill="#F8CCCC" mask="url(#mask-2)"></path>
        </g>
        <path d="M14.6148477,22.1395424 C14.9346041,22.1395424 15.2364213,22.0775424 15.5206142,21.9535424 C15.8044924,21.8301687 16.0534365,21.6623303 16.2665025,21.4500273 C16.4798832,21.2383505 16.6485736,20.9906636 16.7728883,20.7079061 C16.8968883,20.4251485 16.959203,20.1245424 16.959203,19.806401 C16.959203,19.152896 16.728198,18.6002192 16.2665025,18.1496232 C15.8044924,17.6987141 15.2540457,17.4735727 14.6148477,17.4735727 L11.5774772,17.4735727 L11.5774772,22.1395424 L14.6148477,22.1395424 Z M25.5655584,36.4280374 C25.7251218,36.4280374 25.8673756,36.4897242 25.9916904,36.6137242 C26.1156904,36.737098 26.1780051,36.8870879 26.1780051,37.0640071 C26.2931929,37.2506333 26.8625228,38.2110071 26.5304924,39.1532192 C26.4555888,39.3661485 26.2396904,39.9792596 25.7430609,40.1132798 C25.671934,40.1326939 25.6096193,40.1380172 25.5655584,40.1392697 L23.4871421,40.1392697 C23.1673858,40.1392697 22.7720964,40.073199 22.3015888,39.9404313 C21.8307665,39.8076636 21.3467259,39.5912899 20.849467,39.290997 C20.3518934,38.9900778 19.8769797,38.5927141 19.4237817,38.0979667 C18.9708985,37.6029061 18.5935482,36.9847848 18.291731,36.2426636 L13.8686447,25.2407949 L11.5774772,25.2407949 L11.5774772,32.5840374 C11.5774772,32.7609566 11.514533,32.9068758 11.3908477,33.0214818 C11.2662183,33.1370273 11.1242792,33.193704 10.964401,33.193704 L8.45985279,33.193704 C8.28203553,33.193704 8.13569036,33.1370273 8.02050254,33.0214818 C7.90468528,32.9068758 7.84709137,32.7609566 7.84709137,32.5840374 L7.84709137,15.246896 C7.84709137,15.1056737 7.8958731,14.977603 7.99375127,14.8623707 C8.091,14.7477646 8.21090863,14.6729263 8.35316244,14.6372293 L8.45985279,14.6372293 L10.964401,14.6372293 L15.2540457,14.6372293 C15.999934,14.6372293 16.6970406,14.7787646 17.3459949,15.0612091 C17.9936904,15.3442798 18.5579848,15.7241081 19.037934,16.2013202 C19.5169391,16.6785323 19.8942893,17.2396636 20.1699848,17.884401 C20.4450508,18.5297646 20.5832132,19.2145828 20.5832132,19.9391687 C20.5832132,21.0172798 20.2939848,21.9845424 19.7171015,22.841896 C19.1395888,23.6992495 18.3889797,24.339603 17.4659036,24.7635828 L19.5704416,29.9863 L21.5956701,34.996401 C21.7407563,35.291997 21.9714467,35.6467747 22.3415584,35.9508253 C23.6111421,36.9941788 25.3591015,36.4909768 25.5655584,36.4280374 L25.5655584,36.4280374 Z" id="Fill-4" fill="#FFFFFF"></path>
        <path d="M30.2633015,33.2998869 L29.117403,28.6608465 L27.9453827,33.2998869 L30.2633015,33.2998869 Z M40.2015553,43.8239172 C40.3614335,43.8239172 40.4986518,43.8812202 40.614469,43.9964525 C40.7299716,44.1113717 40.7875655,44.2572909 40.7875655,44.4342101 L40.7875655,46.8196444 C40.7875655,46.9790283 40.7299716,47.1155535 40.614469,47.2304727 C40.4986518,47.3450788 40.3614335,47.4030081 40.2015553,47.4030081 L38.6827127,47.4030081 C38.6647736,47.4030081 38.531332,47.3939273 38.2830173,47.3763919 C38.0340731,47.3585434 37.7143168,47.3103212 37.3240629,47.2304727 C36.932865,47.1509374 36.5020122,47.0137859 36.0318193,46.8196444 C35.5606822,46.6251899 35.1033929,46.3468162 34.6596365,45.9848364 C34.2155655,45.6222303 33.8070579,45.1669374 33.433799,44.6195838 C33.0611695,44.071604 32.7854741,43.3908566 32.6079716,42.5782808 L31.1958193,37.0111192 L27.012865,37.0111192 L26.4800426,39.1845636 C26.4800426,39.3614828 26.4170985,39.507402 26.2934132,39.6223212 C26.1687838,39.7375535 26.0268447,39.7948566 25.8669665,39.7948566 L23.3624183,39.7948566 C23.184601,39.7948566 23.0382558,39.7375535 22.923068,39.6223212 C22.8072508,39.507402 22.7496569,39.3614828 22.7496569,39.1845636 L27.0924893,21.8740384 C27.0924893,21.6977455 27.1548041,21.5518263 27.2794335,21.4365939 C27.4031188,21.3219879 27.5544995,21.2643717 27.7323168,21.2643717 L28.0253218,21.2643717 L30.209799,21.2643717 L30.5031188,21.2643717 C30.6803066,21.2643717 30.8269665,21.3219879 30.9427838,21.4365939 C31.0576569,21.5518263 31.1158802,21.6977455 31.1158802,21.8740384 L32.7143472,28.2099374 L36.1249766,41.7829273 C36.3201036,42.4013616 36.6401746,42.8516444 37.0842457,43.1350283 C37.528002,43.4174727 37.9808853,43.6122404 38.4428954,43.7180788 C38.9933421,43.8417657 39.579667,43.8768364 40.2015553,43.8239172 L40.2015553,43.8239172 Z" id="Fill-6" fill="#FFFFFF"></path>
        <path d="M50.3879036,35.393796 C50.3879036,34.9873515 50.3120558,34.6078364 50.1613046,34.253998 C50.0102386,33.9004727 49.8015787,33.591099 49.5353249,33.3261899 C49.2690711,33.0612808 48.9581269,32.8536747 48.6028071,32.7033717 C48.2471726,32.5533818 47.865731,32.4779172 47.4572234,32.4779172 L44.8994873,32.4779172 L44.8994873,37.8593919 L44.8994873,43.7976141 L47.4572234,43.7976141 C47.865731,43.7976141 48.2471726,43.7224626 48.6028071,43.5718465 C48.9581269,43.4221697 49.2690711,43.2142505 49.5353249,42.9493414 C49.8015787,42.6841192 50.0102386,42.3750586 50.1613046,42.0212202 C50.3120558,41.6680081 50.3879036,41.2881798 50.3879036,40.8811091 L50.3879036,40.8281899 L50.3879036,35.4470283 L50.3879036,35.393796 Z M47.4572234,28.8725232 C48.3450508,28.8725232 49.1796904,29.0409879 49.9617716,29.3760384 C50.7432234,29.7123414 51.4227056,30.1676343 51.9999036,30.7419172 C52.5771015,31.3162 53.0343909,31.9922505 53.3717716,32.7697556 C53.709467,33.5475737 53.8784721,34.3776848 53.8784721,35.2613414 L53.8784721,41.0141899 C53.8784721,41.8978465 53.709467,42.7282707 53.3717716,43.5060889 C53.0343909,44.2839071 52.5771015,44.9596444 51.9999036,45.5339273 C51.4227056,46.1085232 50.7432234,46.5638162 49.9617716,46.8991798 C49.1796904,47.2351697 48.3450508,47.4030081 47.4572234,47.4030081 L44.2860964,47.4030081 L44.2596599,47.4030081 L41.7818629,47.4030081 L39.3037513,47.4030081 C39.1262487,47.4030081 38.9795888,47.3453919 38.864401,47.2304727 C38.7485838,47.1155535 38.6913046,46.9696343 38.6913046,46.7927152 L38.6913046,44.3806646 C38.6913046,44.2040586 38.7485838,44.0587657 38.864401,43.9435333 C38.9795888,43.8286141 39.1262487,43.7706848 39.3037513,43.7706848 L41.1691015,43.7706848 L41.1691015,29.4821899 C41.1691015,29.305897 41.2263807,29.1599778 41.342198,29.0447455 C41.4573858,28.9298263 41.6040457,28.8725232 41.7818629,28.8725232 L44.2596599,28.8725232 L44.3131624,28.8725232 L47.4572234,28.8725232 Z" id="Fill-8" fill="#FFFFFF"></path>
    </g>
</svg>


